<svg xmlns="http://www.w3.org/2000/svg" xmlns:svg="http://www.w3.org/2000/svg" id="Layer_1" width="128" height="128" x="0" y="0" enable-background="new 0 0 128 128" version="1.1" viewBox="0 0 128 128" xml:space="preserve"><metadata id="metadata131"/><defs id="defs129"><linearGradient id="SVGID_3_-4" x1="-114.99" x2="-114.99" y1="-871.338" y2="-875.928" gradientTransform="matrix(0.9592,0.2827,0.2827,-0.9592,444.1304,-735.9191)" gradientUnits="userSpaceOnUse"><stop style="stop-color:#dedede" id="stop28" offset="0"/><stop style="stop-color:#fefefe" id="stop30-7" offset="1"/></linearGradient><linearGradient id="SVGID_4_-4" x1="-83.438" x2="-154.761" y1="-1014.028" y2="-977.861" gradientTransform="matrix(0.9098,0.415,0.415,-0.9098,601.2445,-757.3582)" gradientUnits="userSpaceOnUse"><stop style="stop-color:#dedede" id="stop35" offset="0"/><stop style="stop-color:#fefefe" id="stop37-4" offset="1"/></linearGradient><linearGradient id="SVGID_5_-3" x1="-44.413" x2="-44.413" y1="-192.247" y2="-201.433" gradientTransform="matrix(0.9984,0.0568,0.0568,-0.9984,147.0016,-93.5403)" gradientUnits="userSpaceOnUse"><stop style="stop-color:#c51015" id="stop52" offset="0"/><stop style="stop-color:#e20a16" id="stop54" offset="1"/></linearGradient><linearGradient id="SVGID_6_-0" x1="-21.388" x2="-21.388" y1="-197.563" y2="-206.748" gradientTransform="matrix(0.9984,0.0568,0.0568,-0.9984,147.0016,-93.5403)" gradientUnits="userSpaceOnUse"><stop style="stop-color:#f3a800" id="stop59" offset="0"/><stop style="stop-color:#ffbf00" id="stop61" offset="1"/></linearGradient><linearGradient id="SVGID_7_-7" x1="-30.757" x2="-30.757" y1="-185.615" y2="-194.799" gradientTransform="matrix(0.9984,0.0568,0.0568,-0.9984,147.0016,-93.5403)" gradientUnits="userSpaceOnUse"><stop style="stop-color:#80c11b" id="stop66" offset="0"/><stop style="stop-color:#80e21b" id="stop68" offset="1"/></linearGradient><linearGradient id="SVGID_8_-8" x1="-35.045" x2="-35.045" y1="-204.194" y2="-213.379" gradientTransform="matrix(0.9984,0.0568,0.0568,-0.9984,147.0016,-93.5403)" gradientUnits="userSpaceOnUse"><stop style="stop-color:#57c7f1" id="stop73" offset="0"/><stop style="stop-color:#99dbf6" id="stop75" offset="1"/></linearGradient><linearGradient id="SVGID_9_-6" x1="-88.946" x2="-88.946" y1="-196.142" y2="-226.2" gradientTransform="matrix(0.9981,0.0613,0.0613,-0.9981,155.9071,-117.3663)" gradientUnits="userSpaceOnUse"><stop style="stop-color:#80c11b" id="stop84" offset="0"/><stop style="stop-color:#80e21b" id="stop86" offset="1"/></linearGradient></defs><g id="g3" transform="matrix(1.8102714,-0.00224103,0.00359934,1.7699988,-53.483747,-67.95917)"><linearGradient id="SVGID_2_" x1="-17.894" x2="-77.366" y1="-31.65" y2="9.993" gradientTransform="matrix(0.9976,0,0,-0.9975,112.6875,11.5658)" gradientUnits="userSpaceOnUse"><stop style="stop-color:#c5c6c8" id="stop21" offset="0"/><stop style="stop-color:#eff0f0" id="stop23" offset="1"/></linearGradient><g id="g27"><linearGradient id="SVGID_3_" x1="-76.565" x2="-76.565" y1="-65.978" y2="-42.11" gradientTransform="matrix(1,0,0,-1,123.3447,2.9531)" gradientUnits="userSpaceOnUse"><stop style="stop-color:#ec008c" id="stop30" offset="0"/><stop style="stop-color:#c40075" id="stop32" offset="1"/></linearGradient><path id="path34" d="m 58.895,62.534 c 0,0 -1.862,-17.564 -23.375,-20.78 0,0 -7.655,29.935 10.548,32.657 18.203,2.72 12.827,-11.877 12.827,-11.877 z" style="fill:url(#SVGID_3_);stroke:#969696;stroke-linecap:round;stroke-linejoin:round"/><linearGradient id="SVGID_4_" x1="-40.586" x2="-40.586" y1="-65.978" y2="-42.11" gradientTransform="matrix(1,0,0,-1,123.3447,2.9531)" gradientUnits="userSpaceOnUse"><stop style="stop-color:#ec008c" id="stop37" offset="0"/><stop style="stop-color:#c40075" id="stop39" offset="1"/></linearGradient><path id="path41" d="m 70.645,62.534 c 0,0 1.861,-17.564 23.373,-20.78 0,0 7.653,29.935 -10.55,32.657 C 65.266,77.131 70.645,62.534 70.645,62.534 z" style="fill:url(#SVGID_4_);stroke:#969696;stroke-linecap:round;stroke-linejoin:round"/><linearGradient id="SVGID_5_" x1="-48.416" x2="-76.759" y1="-80.014" y2="-60.168" gradientTransform="matrix(1,0,0,-1,123.3447,2.9531)" gradientUnits="userSpaceOnUse"><stop style="stop-color:#dedede" id="stop44" offset="0"/><stop style="stop-color:#fefefe" id="stop46" offset="1"/></linearGradient><path id="path48" d="m 64.768,103.605 c 15.272,0 28.205,-10.04 32.613,-23.9 C 92.973,65.842 80.04,44.726 64.768,44.726 c -15.271,0 -28.203,21.116 -32.611,34.979 4.408,13.86 17.34,23.9 32.611,23.9 z" style="fill:url(#SVGID_5_);stroke:#969696;stroke-linecap:round;stroke-linejoin:round"/><g id="g50"><g id="g52"><g id="g54"><line id="line56" x1="53.596" x2="36.07" y1="92.017" y2="105.643" style="fill:none"/><path id="path58" d="m 53.357,91.577 -17.525,13.625 c -0.204,0.16 -0.261,0.482 -0.129,0.728 0.132,0.242 0.403,0.311 0.606,0.152 L 53.834,92.459 c 0.202,-0.158 0.261,-0.484 0.128,-0.728 -0.13,-0.243 -0.402,-0.311 -0.605,-0.154 z" style="fill:#969696"/></g><g id="g60"><line id="line62" x1="57.54" x2="40.014" y1="92.541" y2="106.168" style="fill:none"/><path id="path64" d="m 57.3,92.103 -17.526,13.623 c -0.203,0.157 -0.26,0.483 -0.128,0.727 0.132,0.244 0.403,0.312 0.605,0.156 L 57.777,92.98 c 0.203,-0.157 0.262,-0.482 0.129,-0.727 -0.133,-0.241 -0.403,-0.309 -0.606,-0.15 z" style="fill:#969696"/></g></g><g id="g66"><g id="g68"><line id="line70" x1="75.941" x2="93.467" y1="92.017" y2="105.643" style="fill:none"/><path id="path72" d="m 76.18,91.577 17.525,13.625 c 0.203,0.16 0.26,0.482 0.129,0.728 -0.132,0.242 -0.402,0.311 -0.605,0.152 L 75.703,92.459 c -0.203,-0.158 -0.262,-0.484 -0.13,-0.728 0.133,-0.243 0.406,-0.311 0.607,-0.154 z" style="fill:#969696"/></g><g id="g74"><line id="line76" x1="71.998" x2="89.523" y1="92.541" y2="106.168" style="fill:none"/><path id="path78" d="m 72.236,92.103 17.525,13.623 c 0.202,0.157 0.26,0.483 0.129,0.727 -0.134,0.243 -0.404,0.312 -0.605,0.156 L 71.759,92.98 c -0.202,-0.157 -0.261,-0.482 -0.129,-0.727 0.134,-0.241 0.404,-0.309 0.606,-0.15 z" style="fill:#969696"/></g></g></g><path id="path80" d="m 46.485,75.449 c 0,0 12.129,-3.232 9.434,9.704 0,0 -11.32,2.427 -9.434,-9.704 z" style="fill:#fff"/><path id="path82" d="m 83.052,75.449 c 0,0 -12.13,-3.232 -9.433,9.704 0,0 11.319,2.427 9.433,-9.704 z" style="fill:#fff"/><line id="line84" x1="64.77" x2="64.77" y1="93.446" y2="98.498" style="fill:none;stroke:#969696;stroke-width:2;stroke-linecap:round;stroke-linejoin:round"/><linearGradient id="SVGID_6_" x1="-71.437" x2="-62.053" y1="-52.078" y2="-52.078" gradientTransform="matrix(1,0,0,-1,123.3447,2.9531)" gradientUnits="userSpaceOnUse"><stop style="stop-color:#9a9a9a" id="stop87" offset="0"/><stop style="stop-color:#dedede" id="stop89" offset="1"/></linearGradient><polygon id="polygon91" points="61.292 63.718 58.077 46.343 51.908 48.778" style="fill:url(#SVGID_6_)"/><linearGradient id="SVGID_7_" x1="-63.685" x2="-57.702" y1="-50.8" y2="-50.8" gradientTransform="matrix(1,0,0,-1,123.3447,2.9531)" gradientUnits="userSpaceOnUse"><stop style="stop-color:#9a9a9a" id="stop94" offset="0"/><stop style="stop-color:#dedede" id="stop96" offset="1"/></linearGradient><polygon id="polygon98" points="64.208 62.294 65.643 45.332 59.66 45.212" style="fill:url(#SVGID_7_)"/><linearGradient id="SVGID_8_" x1="-73.598" x2="-67.472" y1="-76.079" y2="-76.079" gradientTransform="matrix(1,0,0,-1,123.3447,2.9531)" gradientUnits="userSpaceOnUse"><stop style="stop-color:#00b2de" id="stop101" offset="0"/><stop style="stop-color:#99dbf6" id="stop103" offset="1"/></linearGradient><circle id="circle105" cx="52.81" cy="79.032" r="3.063" d="m 55.873001,79.031998 c 0,1.691648 -1.371351,3.063 -3.063,3.063 -1.691648,0 -3.063,-1.371352 -3.063,-3.063 0,-1.691648 1.371352,-3.063 3.063,-3.063 1.691649,0 3.063,1.371352 3.063,3.063 z" style="fill:url(#SVGID_8_)"/><linearGradient id="SVGID_9_" x1="-49.722" x2="-43.596" y1="-76.079" y2="-76.079" gradientTransform="matrix(1,0,0,-1,123.3447,2.9531)" gradientUnits="userSpaceOnUse"><stop style="stop-color:#00b2de" id="stop108" offset="0"/><stop style="stop-color:#99dbf6" id="stop110" offset="1"/></linearGradient><circle id="circle112" cx="76.686" cy="79.032" r="3.063" d="m 79.748997,79.031998 c 0,1.691648 -1.371352,3.063 -3.063,3.063 -1.691648,0 -3.063,-1.371352 -3.063,-3.063 0,-1.691648 1.371352,-3.063 3.063,-3.063 1.691648,0 3.063,1.371352 3.063,3.063 z" style="fill:url(#SVGID_9_)"/><path id="path114" d="m 46.259,74.603 -0.553,0.147 -0.087,0.563 c -0.623,4.003 0.064,6.978 2.039,8.845 3.123,2.949 8.229,1.896 8.444,1.852 l 0.559,-0.12 0.115,-0.56 c 0.886,-4.246 0.33,-7.352 -1.65,-9.227 -3.151,-2.98 -8.635,-1.56 -8.867,-1.5 z m 7.666,2.778 c 1.005,0.955 1.51,2.41 1.51,4.351 0,0.795 -0.106,1.694 -0.277,2.653 -1.279,0.158 -4.384,0.312 -6.3,-1.506 -1.138,-1.076 -1.709,-2.713 -1.709,-4.881 0,-0.559 0.076,-1.19 0.153,-1.822 1.325,-0.243 4.683,-0.635 6.623,1.205 z" style="fill:#969696"/><path id="path116" d="m 74.41,76.104 c -1.98,1.875 -2.535,4.979 -1.648,9.228 l 0.115,0.559 0.559,0.119 c 0.215,0.047 5.32,1.1 8.443,-1.851 1.977,-1.866 2.661,-4.842 2.039,-8.845 L 83.83,74.751 83.277,74.603 c -0.23,-0.06 -5.714,-1.48 -8.867,1.501 z m -0.308,5.627 c 0,-1.938 0.506,-3.396 1.51,-4.351 1.941,-1.842 5.299,-1.448 6.625,-1.205 0.076,0.632 0.152,1.265 0.152,1.822 0,2.168 -0.572,3.805 -1.707,4.881 -1.918,1.816 -5.022,1.664 -6.303,1.506 -0.17,-0.958 -0.277,-1.858 -0.277,-2.653 z" style="fill:#969696"/><g id="g118"><linearGradient id="SVGID_10_" x1="-64.434" x2="-52.719" y1="-89.595" y2="-89.595" gradientTransform="matrix(1,0,0,-1,123.3447,2.9531)" gradientUnits="userSpaceOnUse"><stop style="stop-color:#9a9a9a" id="stop121" offset="0"/><stop style="stop-color:#dedede" id="stop123" offset="1"/></linearGradient><path id="path125" d="m 63.19,95.187 c 0.868,1.037 2.289,1.037 3.156,0 l 3.93,-4.701 c 0.152,-0.183 0.27,-0.358 0.351,-0.526 -1.758,-0.529 -3.747,-0.828 -5.856,-0.828 -2.11,0 -4.101,0.299 -5.858,0.828 0.082,0.168 0.197,0.344 0.35,0.526 l 3.927,4.701 z" style="fill:url(#SVGID_10_)"/></g></g></g><text style="font-size:12px;font-style:normal;font-weight:400;line-height:125%;letter-spacing:0;word-spacing:0;fill:#000;fill-opacity:1;stroke:none;font-family:Sans" id="text4009" x="-70.041" y="159.023" xml:space="preserve"><tspan id="tspan4013" x="-70.041" y="174.023">icons: milky by Banu Önal - http://kde-look.org/content/show.php/Milky?content=133124</tspan></text></svg>