<svg xmlns="http://www.w3.org/2000/svg" xmlns:svg="http://www.w3.org/2000/svg" xmlns:xlink="http://www.w3.org/1999/xlink" id="svg3039" width="1280" height="800" version="1.1"><metadata id="metadata3045"/><defs id="defs3043"><linearGradient id="linearGradient4003" x1="-377.391" x2="-377.391" y1="869.44" y2="830.864" gradientTransform="translate(412.6201,-813.9922)" gradientUnits="userSpaceOnUse"><stop id="stop4005" offset="0" style="stop-color:#e03584;stop-opacity:1"/><stop style="stop-color:#cf2379;stop-opacity:.0866426" id="stop4007" offset="1"/></linearGradient><linearGradient id="linearGradient3906"><stop style="stop-color:#ff3d95;stop-opacity:1" id="stop3908" offset="0"/><stop style="stop-color:#db3081;stop-opacity:0" id="stop3910" offset="1"/></linearGradient><linearGradient id="linearGradient3957"><stop style="stop-color:#c82f74;stop-opacity:1" id="stop3959" offset="0"/><stop style="stop-color:#c82f74;stop-opacity:0" id="stop3961" offset="1"/></linearGradient><linearGradient id="linearGradient3949"><stop style="stop-color:#fff;stop-opacity:1" id="stop3951" offset="0"/><stop style="stop-color:#bb1026;stop-opacity:0" id="stop3953" offset="1"/></linearGradient><linearGradient id="linearGradient3825"><stop style="stop-color:#bc2568;stop-opacity:1" id="stop3827" offset="0"/><stop style="stop-color:#fff;stop-opacity:0" id="stop3829" offset="1"/></linearGradient><linearGradient id="linearGradient3831-1" x1="-362.546" x2="1440.58" y1="-374.327" y2="-374.327" gradientTransform="matrix(1.000011,0,0,0.95713035,302.63575,135.27356)" gradientUnits="userSpaceOnUse" xlink:href="#linearGradient3825-6"/><linearGradient id="linearGradient3825-6"><stop style="stop-color:#bc2568;stop-opacity:1" id="stop3827-0" offset="0"/><stop style="stop-color:#fff;stop-opacity:0" id="stop3829-8" offset="1"/></linearGradient><linearGradient id="linearGradient3848-1" x1="-362.546" x2="1440.58" y1="-374.327" y2="-374.327" gradientTransform="matrix(1.000011,0,0,0.95713035,-677.61594,1053.6281)" gradientUnits="userSpaceOnUse" xlink:href="#linearGradient3825-6-6"/><linearGradient id="linearGradient3825-6-6"><stop style="stop-color:#bc2568;stop-opacity:1" id="stop3827-0-5" offset="0"/><stop style="stop-color:#fff;stop-opacity:0" id="stop3829-8-8" offset="1"/></linearGradient><linearGradient id="linearGradient3831-5" x1="-362.546" x2="1440.58" y1="-374.327" y2="-374.327" gradientTransform="matrix(1.000011,0,0,0.95713035,302.63575,135.27356)" gradientUnits="userSpaceOnUse" xlink:href="#linearGradient3825-1"/><linearGradient id="linearGradient3825-1"><stop style="stop-color:#bc2568;stop-opacity:1" id="stop3827-3" offset="0"/><stop style="stop-color:#fff;stop-opacity:0" id="stop3829-9" offset="1"/></linearGradient><linearGradient id="SVGID_1_" x1="-377.391" x2="-377.391" y1="869.44" y2="830.864" gradientTransform="translate(412.6201,-813.9922)" gradientUnits="userSpaceOnUse"><stop style="stop-color:#e03584;stop-opacity:1" id="stop4325" offset="0"/><stop id="stop3904" offset="1" style="stop-color:#cf2379;stop-opacity:1"/></linearGradient><linearGradient id="SVGID_2_" x1="-319.547" x2="-319.547" y1="869.44" y2="830.864" gradientTransform="translate(412.6201,-813.9922)" gradientUnits="userSpaceOnUse"><stop style="stop-color:#ec008c" id="stop4332" offset="0"/><stop style="stop-color:#c40075" id="stop4334" offset="1"/></linearGradient><radialGradient id="SVGID_3_" cx="-348.619" cy="877.898" r="50.206" gradientTransform="translate(412.6201,-813.9922)" gradientUnits="userSpaceOnUse"><stop style="stop-color:#fafafa" id="stop4339" offset="0"/><stop style="stop-color:#f4f4f4" id="stop4341" offset=".311"/><stop style="stop-color:#e3e3e3" id="stop4343" offset=".726"/><stop style="stop-color:#d4d4d4" id="stop4345" offset="1"/></radialGradient><linearGradient id="SVGID_4_" x1="16.911" x2="46.651" y1="103.766" y2="103.766" gradientUnits="userSpaceOnUse"><stop style="stop-color:#ec008c" id="stop4358" offset="0"/><stop style="stop-color:#c4008c" id="stop4360" offset="1"/></linearGradient><linearGradient id="SVGID_5_" x1="23.283" x2="53.023" y1="104.614" y2="104.614" gradientUnits="userSpaceOnUse"><stop style="stop-color:#ec008c" id="stop4369" offset="0"/><stop style="stop-color:#c4008c" id="stop4371" offset="1"/></linearGradient><linearGradient id="SVGID_6_" x1="81.347" x2="111.086" y1="103.766" y2="103.766" gradientUnits="userSpaceOnUse"><stop style="stop-color:#ec008c" id="stop4382" offset="0"/><stop style="stop-color:#c4008c" id="stop4384" offset="1"/></linearGradient><linearGradient id="SVGID_7_" x1="74.974" x2="104.712" y1="104.613" y2="104.613" gradientUnits="userSpaceOnUse"><stop style="stop-color:#ec008c" id="stop4393" offset="0"/><stop style="stop-color:#c4008c" id="stop4395" offset="1"/></linearGradient><linearGradient id="SVGID_8_" x1="-368.59" x2="-354.238" y1="846.973" y2="846.973" gradientTransform="translate(412.6201,-813.9922)" gradientUnits="userSpaceOnUse"><stop style="stop-color:#9a9a9a" id="stop4406" offset="0"/><stop style="stop-color:#dedede" id="stop4408" offset="1"/></linearGradient><linearGradient id="SVGID_9_" x1="-356.672" x2="-347.215" y1="844.716" y2="844.716" gradientTransform="translate(412.6201,-813.9922)" gradientUnits="userSpaceOnUse"><stop style="stop-color:#9a9a9a" id="stop4413" offset="0"/><stop style="stop-color:#dedede" id="stop4415" offset="1"/></linearGradient><linearGradient id="SVGID_10_" x1="-372.896" x2="-362.997" y1="885.762" y2="885.762" gradientTransform="translate(412.6201,-813.9922)" gradientUnits="userSpaceOnUse"><stop style="stop-color:#5f5d5c" id="stop4420" offset="0"/><stop style="stop-color:#181500" id="stop4422" offset="1"/></linearGradient><linearGradient id="SVGID_11_" x1="-334.311" x2="-324.409" y1="885.762" y2="885.762" gradientTransform="translate(412.6201,-813.9922)" gradientUnits="userSpaceOnUse"><stop style="stop-color:#5f5d5c" id="stop4427" offset="0"/><stop style="stop-color:#181500" id="stop4429" offset="1"/></linearGradient><linearGradient id="linearGradient4168" x1="-377.391" x2="-377.391" y1="869.44" y2="830.864" gradientTransform="translate(412.6201,-813.9922)" gradientUnits="userSpaceOnUse" xlink:href="#SVGID_1_"/><linearGradient id="linearGradient4170" x1="-319.547" x2="-319.547" y1="869.44" y2="830.864" gradientTransform="translate(412.6201,-813.9922)" gradientUnits="userSpaceOnUse" xlink:href="#SVGID_2_"/><radialGradient id="radialGradient4172" cx="-348.619" cy="877.898" r="50.206" gradientTransform="translate(412.6201,-813.9922)" gradientUnits="userSpaceOnUse" xlink:href="#SVGID_3_"/><linearGradient id="linearGradient4174" x1="16.911" x2="46.651" y1="103.766" y2="103.766" gradientUnits="userSpaceOnUse" xlink:href="#SVGID_4_"/><linearGradient id="linearGradient4176" x1="23.283" x2="53.023" y1="104.614" y2="104.614" gradientUnits="userSpaceOnUse" xlink:href="#SVGID_5_"/><linearGradient id="linearGradient4178" x1="81.347" x2="111.086" y1="103.766" y2="103.766" gradientUnits="userSpaceOnUse" xlink:href="#SVGID_6_"/><linearGradient id="linearGradient4180" x1="74.974" x2="104.712" y1="104.613" y2="104.613" gradientUnits="userSpaceOnUse" xlink:href="#SVGID_7_"/><linearGradient id="linearGradient4182" x1="-368.59" x2="-354.238" y1="846.973" y2="846.973" gradientTransform="translate(412.6201,-813.9922)" gradientUnits="userSpaceOnUse" xlink:href="#SVGID_8_"/><linearGradient id="linearGradient4184" x1="-356.672" x2="-347.215" y1="844.716" y2="844.716" gradientTransform="translate(412.6201,-813.9922)" gradientUnits="userSpaceOnUse" xlink:href="#SVGID_9_"/><linearGradient id="linearGradient4186" x1="-372.896" x2="-362.997" y1="885.762" y2="885.762" gradientTransform="translate(412.6201,-813.9922)" gradientUnits="userSpaceOnUse" xlink:href="#SVGID_10_"/><linearGradient id="linearGradient4188" x1="-334.311" x2="-324.409" y1="885.762" y2="885.762" gradientTransform="translate(412.6201,-813.9922)" gradientUnits="userSpaceOnUse" xlink:href="#SVGID_11_"/><linearGradient id="linearGradient4005" x1="66.773" x2="1171.27" y1="85.002" y2="783.002" gradientUnits="userSpaceOnUse" xlink:href="#linearGradient4003"/><linearGradient id="linearGradient3912" x1="-1109.517" x2="1404.129" y1="820.803" y2="252.803" gradientUnits="userSpaceOnUse" xlink:href="#linearGradient3906"/><filter id="filter3991"><feGaussianBlur id="feGaussianBlur3993" stdDeviation=".524"/></filter><linearGradient id="linearGradient4005-6" x1="66.773" x2="1171.27" y1="85.002" y2="783.002" gradientUnits="userSpaceOnUse" xlink:href="#linearGradient4003-9"/><linearGradient id="linearGradient4003-9" x1="-377.391" x2="-377.391" y1="869.44" y2="830.864" gradientTransform="translate(412.6201,-813.9922)" gradientUnits="userSpaceOnUse"><stop id="stop4005-2" offset="0" style="stop-color:#e03584;stop-opacity:1"/><stop style="stop-color:#cf2379;stop-opacity:.0866426" id="stop4007-3" offset="1"/></linearGradient><linearGradient id="linearGradient4024" x1="40.773" x2="927.27" y1="-392.998" y2="55.002" gradientTransform="translate(-0.02144009,426.99786)" gradientUnits="userSpaceOnUse" xlink:href="#linearGradient4003-9"/><linearGradient id="linearGradient4024-5" x1="2.773" x2="473.27" y1="-410.998" y2="383.002" gradientTransform="translate(1.97856,414.99786)" gradientUnits="userSpaceOnUse" xlink:href="#linearGradient4003-9-9"/><linearGradient id="linearGradient4003-9-9" x1="-377.391" x2="-377.391" y1="869.44" y2="830.864" gradientTransform="translate(412.6201,-813.9922)" gradientUnits="userSpaceOnUse"><stop id="stop4005-2-8" offset="0" style="stop-color:#e03584;stop-opacity:1"/><stop style="stop-color:#cf2379;stop-opacity:.0866426" id="stop4007-3-7" offset="1"/></linearGradient><linearGradient id="linearGradient4058" x1="2.773" x2="473.27" y1="-410.998" y2="383.002" gradientTransform="matrix(-1,0,0,1,1280.0215,413.55376)" gradientUnits="userSpaceOnUse" xlink:href="#linearGradient4003-9-9"/><linearGradient id="linearGradient3912-1" x1="-1109.517" x2="1404.129" y1="820.803" y2="252.803" gradientUnits="userSpaceOnUse" xlink:href="#linearGradient3906-0"/><linearGradient id="linearGradient3906-0"><stop style="stop-color:#ff3d95;stop-opacity:1" id="stop3908-6" offset="0"/><stop style="stop-color:#db3081;stop-opacity:0" id="stop3910-9" offset="1"/></linearGradient><filter id="filter3991-0" color-interpolation-filters="sRGB"><feGaussianBlur id="feGaussianBlur3993-9" stdDeviation=".524"/></filter><linearGradient id="linearGradient4111" x1="-1109.517" x2="1404.129" y1="820.803" y2="252.803" gradientTransform="translate(-58.305895,93.196826)" gradientUnits="userSpaceOnUse" xlink:href="#linearGradient3906-0"/><linearGradient id="linearGradient4134" x1="-1109.517" x2="1404.129" y1="820.803" y2="252.803" gradientTransform="translate(-320.3059,71.19683)" gradientUnits="userSpaceOnUse" xlink:href="#linearGradient3906-0"/></defs><path style="fill:#bb2568;fill-opacity:1" id="rect3049" d="M 0,800 1280,800 1280,0 0,0 0,800 z"/><path style="fill:#bb2568;fill-opacity:1;opacity:1" id="path3823"/><path style="fill:url(#linearGradient4005);fill-opacity:1;stroke:none;stroke-width:.61102133999999997px;stroke-linecap:butt;stroke-linejoin:miter;stroke-opacity:1;opacity:.44043321" id="path3145" d="m 365.38618,2.3591944 c 0,0 -8.00371,286.7933556 510.81382,273.7375256 371.5685,-9.3504 413.0504,-278.625712 413.0504,-278.625712 C 1293.3858,384.93028 625.18921,444.20345 350.72167,376.30419 101.90572,314.75078 -1.2266117,229.65913 -1.2266117,229.65913 l 0,-229.7440753 z"/><path style="opacity:.6028881;fill:url(#linearGradient3912);fill-opacity:1;stroke:none;filter:url(#filter3991)" id="path3145-3" d="M 1246.6907,-0.937763 C 1234.1046,126.99691 1106.9172,300.16033 1027.1776,349.54998 860.8558,452.56749 667.198,481.68942 477.9594,490.71334 375.64693,486.48097 276.99123,460.95539 196.73083,432.62947 c 0,0 -5.47117,223.23742 -4.56507,220.4849 268.92947,160.98549 766.77005,212.48904 1091.53474,100.40316 0,0 -1.1981,-282.59814 0.1234,-418.9255 l -0.6492,-336.14669 c 0,0 -37.6163,0.946172 -36.484,0.616897 z" transform="matrix(1.1758001,0,0,1,-225.91746,0)"/><path style="opacity:.35379064;fill:url(#linearGradient4024);fill-opacity:1;stroke:none" id="path3145-9" d="m 361.36474,11.35706 c 0,0 -4.00371,704.79335 514.81382,691.73752 C 1247.7471,693.74418 1289.229,424.46887 1289.229,424.46887 1307.3647,808.27456 1014.3954,786.19644 411.51141,801.88783 155.28159,808.55678 -1.2480501,656.65699 -1.2480501,656.65699 l 4,-655.74408001 z"/><path style="opacity:.51624546;fill:url(#linearGradient4058);fill-opacity:1;stroke:none" id="path3145-9-1" d="m 918.6353,-2.08704 c 0,0 4.0037,704.79335 -514.8138,691.73752 C 32.25291,680.30008 -9.22899,411.02477 -9.22899,411.02477 c -4.1353,387.45927 664.06128,446.73243 938.52879,378.83318 248.816,-61.55341 351.9483,-146.64506 351.9483,-146.64506 l -2,-643.74408002 z"/><path style="opacity:.55956678;fill:url(#linearGradient4134);fill-opacity:1;stroke:none;filter:url(#filter3991-0)" id="path3145-3-6" d="M 926.3848,70.25906 C 913.7987,198.19373 786.6113,371.35715 706.8717,420.7468 540.5499,523.76431 346.8921,552.88624 157.6535,561.91016 103.57216,559.67297 50.347293,550.70906 0.2285032,538.09229 c -0.57955307,-0.0111 -0.78340725,60.48436 -0.89787598,120.60205 1.19688247,-1.55871 963.62046278,1.13763 963.62046278,1.13763 -0.12276,-86.31055 -0.0775,-187.56671 0.56693,-254.04312 L 962.8688,69.64217 c 0,0 -37.6163,0.94617 -36.484,0.61689 z" transform="matrix(1,0,0,1.2417742,0,-16.533659)"/><g id="g3331" transform="translate(-492.50198,203.15556)"><g id="g4322" transform="matrix(0.81134558,0,0,0.81134558,1070.8215,103.19235)"><linearGradient id="linearGradient4345" x1="-377.391" x2="-377.391" y1="869.44" y2="830.864" gradientTransform="translate(412.6201,-813.9922)" gradientUnits="userSpaceOnUse"><stop id="stop4347" offset="0" style="stop-color:#ec008c"/><stop id="stop4349" offset="1" style="stop-color:#c40075"/></linearGradient><path id="path4329" d="m 54.809,45.109 c 0,0 -3.008,-28.387 -37.776,-33.583 0,0 -12.369,48.379 17.048,52.777 29.418,4.395 20.728,-19.194 20.728,-19.194 z" style="fill:url(#linearGradient4168)"/><linearGradient id="linearGradient4352" x1="-319.547" x2="-319.547" y1="869.44" y2="830.864" gradientTransform="translate(412.6201,-813.9922)" gradientUnits="userSpaceOnUse"><stop id="stop4354" offset="0" style="stop-color:#ec008c"/><stop id="stop4356" offset="1" style="stop-color:#c40075"/></linearGradient><path id="path4336" d="m 73.495,45.109 c 0,0 3.008,-28.387 37.773,-33.583 0,0 12.369,48.379 -17.049,52.777 C 64.802,68.698 73.495,45.109 73.495,45.109 z" style="fill:url(#linearGradient4170)"/><radialGradient id="radialGradient4359" cx="-348.619" cy="877.898" r="50.206" gradientTransform="translate(412.6201,-813.9922)" gradientUnits="userSpaceOnUse"><stop id="stop4361" offset="0" style="stop-color:#fafafa"/><stop id="stop4363" offset=".311" style="stop-color:#f4f4f4"/><stop id="stop4365" offset=".726" style="stop-color:#e3e3e3"/><stop id="stop4367" offset="1" style="stop-color:#d4d4d4"/></radialGradient><path id="path4347" d="m 63.997,111.483 c 24.684,0 45.582,-16.227 52.707,-38.625 -7.125,-22.405 -28.023,-56.53 -52.707,-56.53 -24.677,0 -45.579,34.125 -52.7,56.53 7.121,22.399 28.023,38.625 52.7,38.625 z" style="fill:url(#radialGradient4172);stroke:#b3b3b3"/><g id="g4349"><g id="g4351"><g id="g4353"><line id="line4355" x1="45.942" x2="17.62" y1="92.757" y2="114.775" style="fill:none"/><linearGradient id="linearGradient4374" x1="16.911" x2="46.651" y1="103.766" y2="103.766" gradientUnits="userSpaceOnUse"><stop id="stop4376" offset="0" style="stop-color:#ec008c"/><stop id="stop4378" offset="1" style="stop-color:#c4008c"/></linearGradient><path id="path4362" d="m 45.558,92.045 -28.323,22.019 c -0.328,0.258 -0.423,0.778 -0.208,1.176 0.213,0.392 0.65,0.502 0.978,0.246 L 46.327,93.47 c 0.329,-0.256 0.423,-0.783 0.209,-1.178 -0.212,-0.391 -0.651,-0.502 -0.978,-0.247 z" style="fill:url(#linearGradient4174)"/></g><g id="g4364"><line id="line4366" x1="52.318" x2="23.992" y1="93.603" y2="115.626" style="fill:none"/><linearGradient id="linearGradient4383" x1="23.283" x2="53.023" y1="104.614" y2="104.614" gradientUnits="userSpaceOnUse"><stop id="stop4385" offset="0" style="stop-color:#ec008c"/><stop id="stop4387" offset="1" style="stop-color:#c4008c"/></linearGradient><path id="path4373" d="m 51.93,92.896 -28.325,22.016 c -0.329,0.253 -0.42,0.779 -0.206,1.174 0.211,0.395 0.651,0.506 0.978,0.253 L 52.701,94.313 c 0.328,-0.255 0.422,-0.779 0.208,-1.176 -0.215,-0.39 -0.65,-0.501 -0.979,-0.241 z" style="fill:url(#linearGradient4176)"/></g></g><g id="g4375"><g id="g4377"><line id="line4379" x1="82.056" x2="110.378" y1="92.757" y2="114.775" style="fill:none"/><linearGradient id="linearGradient4393" x1="81.347" x2="111.086" y1="103.766" y2="103.766" gradientUnits="userSpaceOnUse"><stop id="stop4396" offset="0" style="stop-color:#ec008c"/><stop id="stop4398" offset="1" style="stop-color:#c4008c"/></linearGradient><path id="path4386" d="m 82.44,92.045 28.324,22.019 c 0.327,0.258 0.42,0.778 0.207,1.176 -0.211,0.392 -0.65,0.502 -0.979,0.246 L 81.671,93.47 c -0.328,-0.256 -0.424,-0.783 -0.209,-1.178 0.215,-0.391 0.654,-0.502 0.978,-0.247 z" style="fill:url(#linearGradient4178)"/></g><g id="g4388"><line id="line4390" x1="75.683" x2="104.005" y1="93.603" y2="115.626" style="fill:none"/><linearGradient id="linearGradient4403" x1="74.974" x2="104.712" y1="104.613" y2="104.613" gradientUnits="userSpaceOnUse"><stop id="stop4405" offset="0" style="stop-color:#ec008c"/><stop id="stop4407" offset="1" style="stop-color:#c4008c"/></linearGradient><path id="path4397" d="m 76.067,92.896 28.323,22.016 c 0.325,0.253 0.42,0.779 0.208,1.174 -0.217,0.392 -0.652,0.506 -0.979,0.253 L 75.298,94.312 c -0.328,-0.255 -0.424,-0.779 -0.209,-1.176 0.215,-0.389 0.654,-0.5 0.978,-0.24 z" style="fill:url(#linearGradient4180)"/></g></g></g><path id="path4399" d="m 34.45,65.979 c 0,0 19.605,-5.223 15.249,15.683 -10e-4,0 -18.296,3.923 -15.249,-15.683 z" style="fill:#fff"/><path id="path4401" d="m 93.548,65.979 c 0,0 -19.604,-5.223 -15.245,15.683 0,0 18.292,3.923 15.245,-15.683 z" style="fill:#fff"/><line id="line4403" x1="64" x2="64" y1="95.064" y2="103.229" style="fill:#595959;stroke:#4d4d4d"/><linearGradient id="linearGradient4413" x1="-368.59" x2="-354.238" y1="846.973" y2="846.973" gradientTransform="translate(412.6201,-813.9922)" gradientUnits="userSpaceOnUse"><stop id="stop4416" offset="0" style="stop-color:#9a9a9a"/><stop id="stop4418" offset="1" style="stop-color:#dedede"/></linearGradient><path id="path4410" d="m 48.336,21.335 c -1.612,0.896 -4.306,2.883 -4.306,2.883 L 58.382,47.021 53.187,18.942 c 0,0 -3.121,1.432 -4.851,2.393 z" style="fill:url(#linearGradient4182)"/><linearGradient id="linearGradient4421" x1="-356.672" x2="-347.215" y1="844.716" y2="844.716" gradientTransform="translate(412.6201,-813.9922)" gradientUnits="userSpaceOnUse"><stop id="stop4423" offset="0" style="stop-color:#9a9a9a"/><stop id="stop4425" offset="1" style="stop-color:#dedede"/></linearGradient><path id="path4417" d="m 61.369,16.875 c -2.844,0.308 -5.42,1.153 -5.42,1.153 l 7.146,26.691 2.311,-27.884 c -0.001,10e-4 -1.193,-0.267 -4.037,0.04 z" style="fill:url(#linearGradient4184)"/><linearGradient id="linearGradient4428" x1="-372.896" x2="-362.997" y1="885.762" y2="885.762" gradientTransform="translate(412.6201,-813.9922)" gradientUnits="userSpaceOnUse"><stop id="stop4430" offset="0" style="stop-color:#5f5d5c"/><stop id="stop4432" offset="1" style="stop-color:#181500"/></linearGradient><circle id="circle4424" cx="44.673" cy="71.771" r="4.951" d="m 49.624001,71.771004 c 0,2.734362 -2.216639,4.951 -4.951001,4.951 -2.734362,0 -4.951,-2.216638 -4.951,-4.951 0,-2.734362 2.216638,-4.951 4.951,-4.951 2.734362,0 4.951001,2.216638 4.951001,4.951 z" style="fill:url(#linearGradient4186)"/><linearGradient id="linearGradient4435" x1="-334.311" x2="-324.409" y1="885.762" y2="885.762" gradientTransform="translate(412.6201,-813.9922)" gradientUnits="userSpaceOnUse"><stop id="stop4437" offset="0" style="stop-color:#5f5d5c"/><stop id="stop4439" offset="1" style="stop-color:#181500"/></linearGradient><circle id="circle4431" cx="83.259" cy="71.771" r="4.951" d="m 88.210003,71.771004 c 0,2.734362 -2.216638,4.951 -4.951,4.951 -2.734362,0 -4.951001,-2.216638 -4.951001,-4.951 0,-2.734362 2.216639,-4.951 4.951001,-4.951 2.734362,0 4.951,2.216638 4.951,4.951 z" style="fill:url(#linearGradient4188)"/><path id="path4433" d="m 34.086,64.614 -0.893,0.236 -0.142,0.908 c -1.007,6.472 0.104,11.278 3.295,14.296 5.047,4.766 13.298,3.065 13.646,2.992 l 0.906,-0.192 0.183,-0.905 C 52.514,75.087 51.615,70.068 48.417,67.037 43.322,62.222 34.463,64.515 34.086,64.614 z m 12.39,4.489 c 1.623,1.543 2.44,3.894 2.44,7.032 0,1.284 -0.171,2.737 -0.449,4.286 -2.067,0.256 -7.086,0.505 -10.183,-2.434 -1.836,-1.739 -2.761,-4.384 -2.761,-7.888 0,-0.903 0.123,-1.922 0.249,-2.945 2.14,-0.391 7.567,-1.026 10.704,1.949 z" style="fill:#595959"/><path id="path4435" d="m 79.581,67.037 c -3.201,3.031 -4.098,8.048 -2.664,14.915 l 0.186,0.902 0.902,0.192 c 0.348,0.075 8.6,1.777 13.646,-2.991 3.194,-3.016 4.303,-7.825 3.295,-14.293 l -0.142,-0.91 -0.894,-0.238 c -0.371,-0.099 -9.235,-2.392 -14.329,2.423 z m -0.498,9.094 c 0,-3.131 0.816,-5.487 2.439,-7.03 3.137,-2.977 8.566,-2.34 10.706,-1.948 0.123,1.021 0.245,2.044 0.245,2.945 0,3.504 -0.924,6.15 -2.758,7.888 -3.1,2.935 -8.115,2.689 -10.186,2.434 -0.272,-1.548 -0.446,-3.003 -0.446,-4.289 z" style="fill:#595959"/><g id="g4437"><path id="path4439" d="m 61.447,97.878 c 1.404,1.677 3.7,1.677 5.101,0 L 72.9,90.282 c 0.246,-0.298 0.438,-0.579 0.568,-0.852 -2.842,-0.854 -6.055,-1.338 -9.464,-1.338 -3.409,0 -6.628,0.484 -9.466,1.338 0.133,0.272 0.315,0.558 0.565,0.852 l 6.344,7.596 z" style="fill:#595959"/></g></g><text id="text4651" x="1070.873" y="229.429" xml:space="preserve" style="font-size:22.40074921px;font-style:normal;font-variant:normal;font-weight:400;font-stretch:normal;line-height:125%;letter-spacing:0;word-spacing:0;fill:#f4d7d7;fill-opacity:1;stroke:none;font-family:Sans;-inkscape-font-specification:Fixed"><tspan id="tspan4653" x="1070.873" y="229.429">Pisi Linux</tspan></text></g></svg>