<svg xmlns="http://www.w3.org/2000/svg" xmlns:cc="http://web.resource.org/cc/" xmlns:svg="http://www.w3.org/2000/svg" xmlns:xlink="http://www.w3.org/1999/xlink" id="svg2161" width="48" height="48"><defs id="defs2163"><linearGradient id="linearGradient3093"><stop style="stop-color:#000;stop-opacity:1" id="stop3095" offset="0"/><stop style="stop-color:#000;stop-opacity:0" id="stop3097" offset="1"/></linearGradient><radialGradient id="radialGradient2472" cx="224.5" cy="387.113" r="174.5" fx="224.5" fy="387.113" gradientTransform="matrix(1,0,0,0.266476,0,283.9565)" gradientUnits="userSpaceOnUse" xlink:href="#linearGradient3093"/><linearGradient id="linearGradient2503"><stop style="stop-color:#000;stop-opacity:1" id="stop2505" offset="0"/><stop style="stop-color:#141413;stop-opacity:1" id="stop2507" offset="1"/></linearGradient><linearGradient id="linearGradient1476" x1="585" x2="585" y1="390.613" y2="85.377" gradientTransform="matrix(0.124741,0,0,0.124741,-49.78411,-8.952609)" gradientUnits="userSpaceOnUse" xlink:href="#linearGradient2503"/><linearGradient id="linearGradient2495"><stop style="stop-color:#0a0a09;stop-opacity:1" id="stop2497" offset="0"/><stop style="stop-color:#282927;stop-opacity:1" id="stop2499" offset="1"/></linearGradient><linearGradient id="linearGradient1474" x1="674" x2="505" y1="276.113" y2="199.113" gradientTransform="matrix(0.124741,0,0,0.124741,-49.78411,-8.952609)" gradientUnits="userSpaceOnUse" xlink:href="#linearGradient2495"/><linearGradient id="linearGradient2399" x1="585" x2="585" y1="390.613" y2="85.377" gradientUnits="userSpaceOnUse" xlink:href="#linearGradient2535"/><linearGradient id="linearGradient2535"><stop id="stop2537" offset="0" style="stop-color:#fff;stop-opacity:.36078432"/><stop id="stop2539" offset="1" style="stop-color:#fff;stop-opacity:0"/></linearGradient><linearGradient id="linearGradient2397" x1="532" x2="667.5" y1="131.406" y2="357.406" gradientTransform="translate(-291.933,627.3998)" gradientUnits="userSpaceOnUse" xlink:href="#linearGradient2535"/><linearGradient id="linearGradient3072"><stop style="stop-color:#fff;stop-opacity:1" id="stop3074" offset="0"/><stop style="stop-color:#fff;stop-opacity:0" id="stop3076" offset="1"/></linearGradient><linearGradient id="linearGradient2395" x1="585" x2="585" y1="76.36" y2="170.391" gradientUnits="userSpaceOnUse" xlink:href="#linearGradient3072"/></defs><metadata id="metadata2166"/><g id="layer1"><path style="opacity:.36679538;color:#000;fill:url(#radialGradient2472);fill-opacity:1;fill-rule:nonzero;stroke:none;stroke-width:38.81499863;stroke-linecap:round;stroke-linejoin:round;marker:none;marker-start:none;marker-mid:none;marker-end:none;stroke-miterlimit:4;stroke-dasharray:none;stroke-dashoffset:0;stroke-opacity:1;visibility:visible;display:inline;overflow:visible" id="path2470" d="M 399 387.11252 A 174.5 46.5 0 1 1 50,387.11252 A 174.5 46.5 0 1 1 399 387.11252 z" transform="matrix(0.137443,0,0,0.154237,-6.855952,-20.43595)"/><rect id="rect2371" width="37.048" height="37.048" x="5.476" y="2.226" ry="6.505" style="fill:url(#linearGradient1474);fill-opacity:1;stroke:url(#linearGradient1476);stroke-width:.99792439;stroke-linecap:round;stroke-miterlimit:4;stroke-dasharray:none;stroke-dashoffset:0;stroke-opacity:1"/><g id="g2415" transform="matrix(0.124741,0,0,0.124741,-61.69688,-99.94425)"><path style="opacity:1;fill:#729fcf;fill-opacity:1;stroke:none;stroke-width:8;stroke-linecap:round;stroke-miterlimit:4;stroke-dasharray:none;stroke-dashoffset:0;stroke-opacity:1" id="path2417" d="M 22 863.61249 A 23 23 0 1 1 -24,863.61249 A 23 23 0 1 1 22 863.61249 z" transform="matrix(1.676363,0,0,1.676363,688.6772,-480.168)"/><path style="opacity:1;fill:#729fcf;fill-opacity:1;stroke:none;stroke-width:8;stroke-linecap:round;stroke-miterlimit:4;stroke-dasharray:none;stroke-dashoffset:0;stroke-opacity:1" id="path2419" d="M 666.92273,892.01313 C 633.50485,900.88553 608.86021,931.34683 608.86023,967.54442 C 608.86023,1003.7419 633.50486,1034.2345 666.92273,1043.1069 C 642.81497,1032.2877 625.48523,1002.5195 625.48523,967.54442 C 625.48522,932.56943 642.81496,902.83233 666.92273,892.01313 z M 707.07898,892.01313 C 731.18675,902.83233 748.51648,932.56933 748.51648,967.54442 C 748.51648,1002.5195 731.18674,1032.2877 707.07898,1043.1069 C 740.49686,1034.2345 765.1415,1003.7419 765.14148,967.54442 C 765.14148,931.34693 740.49687,900.88553 707.07898,892.01313 z"/><path id="path2421" d="M 655.64705,849.58672 C 603.46201,863.44178 564.97718,911.00985 564.97721,967.53562 C 564.97721,1024.0613 603.46203,1071.6783 655.64705,1085.5333 C 618.0006,1068.6381 590.93865,1022.1524 590.93865,967.53562 C 590.93863,912.91905 618.00059,866.48188 655.64705,849.58672 z M 718.35466,849.58672 C 756.00112,866.48188 783.06306,912.91889 783.06306,967.53562 C 783.06306,1022.1524 756.00111,1068.6381 718.35466,1085.5333 C 770.5397,1071.6783 809.02453,1024.0613 809.0245,967.53562 C 809.0245,911.01001 770.53972,863.44178 718.35466,849.58672 z" style="opacity:1;fill:#729fcf;fill-opacity:1;stroke:none;stroke-width:8;stroke-linecap:round;stroke-miterlimit:4;stroke-dasharray:none;stroke-dashoffset:0;stroke-opacity:1"/></g><g id="g1494" transform="matrix(0.124741,0,0,0.124741,-13.36814,-87.21636)"><path id="path2373" d="M 495.15625,93.84375 C 468.52243,93.84375 447.21875,115.11921 447.21875,141.75 L 447.21875,334.46875 C 447.21875,361.09954 468.52545,382.40625 495.15625,382.40625 L 687.84375,382.40625 C 714.47454,382.40625 735.78125,361.09955 735.78125,334.46875 L 735.78125,141.75 C 735.78125,115.11921 714.47755,93.84375 687.84375,93.84375 L 495.15625,93.84375 z" transform="translate(-291.933,627.3998)" style="fill:url(#linearGradient2395);fill-opacity:1;stroke:none;stroke-width:8;stroke-linecap:round;stroke-miterlimit:4;stroke-dasharray:none;stroke-dashoffset:0;stroke-opacity:1"/><path style="fill:url(#linearGradient2397);fill-opacity:1;fill-rule:evenodd;stroke:none;stroke-width:1px;stroke-linecap:butt;stroke-linejoin:miter;stroke-opacity:1" id="path2375" d="M 436.05138,821.4365 C 397.62524,862.62866 358.12861,865.874 299.93097,865.874 C 242.63828,865.874 199.11564,893.22114 163.06701,927.96775 L 163.06701,961.86851 C 163.06701,985.0884 181.12504,1001.9935 203.22326,1001.9935 L 395.91076,1006.0248 C 420.50531,1006.0248 436.03576,986.46307 436.03576,961.86851 L 436.05138,821.4365 z"/><path style="fill:none;fill-opacity:1;stroke:url(#linearGradient2399);stroke-width:8;stroke-linecap:round;stroke-miterlimit:4;stroke-dasharray:none;stroke-dashoffset:0;stroke-opacity:1" id="path2377" d="M 495.15625,97.625 C 470.55593,97.625 451,117.15545 451,141.75 L 451,334.46875 C 451,359.0633 470.56169,378.625 495.15625,378.625 L 687.84375,378.625 C 712.4383,378.625 732,359.06331 732,334.46875 L 732,141.75 C 732,117.15545 712.44405,97.625 687.84375,97.625 L 495.15625,97.625 z" transform="translate(-291.933,627.3998)"/></g></g></svg>